<svg xmlns="http://www.w3.org/2000/svg" viewBox="0 0 520.65 549.5"><defs><style>.cls-1{fill:#25b280;}</style></defs><g id="Layer_2" data-name="Layer 2"><g id="Layer_1-2" data-name="Layer 1"><path class="cls-1" d="M196.9,114.64c-3.5-3.5-7.87-6.12-12.25-8.75a40.83,40.83,0,0,0-14.87-2.62,38.84,38.84,0,0,0-38.5,38.5,38.84,38.84,0,0,0,38.5,38.5,38.84,38.84,0,0,0,38.5-38.5A37.77,37.77,0,0,0,196.9,114.64Z"/><path class="cls-1" d="M280.9,178.51c-6.12-11.37-14.87-13.12-18.37-13.12-7,0-14,4.37-18.38,11.37-.87.88-.87,1.75-1.75,2.63l-35.87,57.75c-4.38,7-7,8.75-7,8.75a2.69,2.69,0,0,1-1.75-.88c-1.75-.87-4.38-3.5-7-6.12C184.65,232.76,175.9,224,161.9,224c-13.12,0-25.37,7-34.12,20.13C126,246.76,112,266,102.4,279.14a23.84,23.84,0,0,0,0,26.25c.88,1.75,2.63,3.5,3.5,5.25,28.88,35.87,73.5,57.75,122.5,54.25A142.92,142.92,0,0,0,334.28,308a26.75,26.75,0,0,0,4.38-6.12,23.44,23.44,0,0,0,.87-22.75c-14-23.63-44.62-77-58.62-100.62Z"/><path class="cls-1" d="M220.53,0H217C158.41.89,103.28,25.39,62.15,67.39S-.85,165.39,0,224C1.78,343,100.65,440.12,219.65,440.12h3.5A226,226,0,0,0,329,411.25l4.37-2.63,2.63,3.5c21,26.26,42.87,52.5,63.87,78.76l35.88,43.74c7.87,9.63,16.62,14,29.75,14.88h1.75c7.87,0,15.75-3.5,23.62-9.62,5.25-4.38,10.5-8.76,14.88-14l1.75-1.76c8.75-7.87,13.12-17.5,13.12-28a41.13,41.13,0,0,0-12.25-28.87c-17.5-17.5-35.87-35-54.25-53.37L432.28,392c-6.13-6.12-12.25-11.38-18.38-17.5l-21-21,2.63-3.5a214.48,214.48,0,0,0,43.75-134.75C437.53,97.13,339.53,0,220.53,0Zm93.63,372.75-3.5,2.63A182.64,182.64,0,0,1,224,399.89h-2.62C124.28,399.89,43.79,321.14,42,224c-1.75-69.13,36.75-133,98-164.5a166.48,166.48,0,0,1,77-18.38h2.62C316.78,41.13,397.27,119.88,399,217A181.1,181.1,0,0,1,314.16,372.76Z"/></g></g></svg>